# xmcd
#
# Track frame offsets: 
#        150
#        21643
#        38597
#        44678
#        54502
#        76484
#        96177
#        131334
#        139172
#        150737
#        172168
#        191216
#        205557
#        220833
#        232729
#        242499
#        256329
#        273077
#        286374
#        299026
#        307264
#        316394
#        334923
#
# Disc length: 4731 seconds
#
# Revision: 1
# Processed by: cddbd v1.5.2PL0 Copyright (c) Steve Scherf et al.
# Submitted via: ExactAudioCopy v0.95a5
#
DISCID=5e127917
DTITLE=Dixiefrog - Sisters Of The South [CD1)
DYEAR=2008
DGENRE=Blues
TTITLE0=Come On Jesus - Cora Fluker
TTITLE1=Born To Die - Cora Mae Bryant
TTITLE2=Cook Cornbread For Your Husband - Algia Mae Hinton
TTITLE3=Wasn't I Scared - Precious Bryant
TTITLE4=I Wrote You A Letter - Essie Mae Brooks
TTITLE5=Jesus Is Always There For You - Beverly Guitar Watkins
TTITLE6=Look How The Wold Has Made A Change - Cora Fluker
TTITLE7=Sunny Tennessee - Etta Baker
TTITLE8=Let Me Play With Your Yoyo - Willa Mae Buckner
TTITLE9=Cora's Escape - Cora Mae Bryant
TTITLE10=Got To Run On - Essie Mae Brooks With Cool John Ferguson
TTITLE11=I Ain't The One You Love - Algia Mae Hinton with Taj Mahal
TTITLE12=Yo Got To Move - Annie Griggs with Cootie Stark
TTITLE13=Fever - Precious Bryant
TTITLE14=Going Down The Road Feeling Bad - Algia Mae Hinton
TTITLE15=Motherless Children - Pura Fe'
TTITLE16=John Henry - Etta Baker with Taj Mahal
TTITLE17=St Louis Blues - Willa Mae Bukner
TTITLE18=Lima Beans - Algia Mae Hinton
TTITLE19=Grat Grammpah's Banjo - Pura Fe'
TTITLE20=Old Time Religion - Lucille Lindsay with Guitar Gabriel
TTITLE21=I Dont Have To Worry Where I Spend Eternity - Essie Mae Brook
TTITLE21=s
TTITLE22=Data
EXTD=
EXTT0=
EXTT1=
EXTT2=
EXTT3=
EXTT4=
EXTT5=
EXTT6=
EXTT7=
EXTT8=
EXTT9=
EXTT10=
EXTT11=
EXTT12=
EXTT13=
EXTT14=
EXTT15=
EXTT16=
EXTT17=
EXTT18=
EXTT19=
EXTT20=
EXTT21=
EXTT22=
PLAYORDER=
